# xmcd
#
# Track frame offsets: 
#        150
#        14162
#        29525
#        44795
#        55082
#        66802
#        79540
#        90257
#        105370
#        120482
#
# Disc length: 1769 seconds
#
# Revision: 4
# Processed by: cddbd v1.5PL3 Copyright (c) Steve Scherf et al.
# Submitted via: ExactAudioCopy v0.95a3
#
DISCID=7906e70a
DTITLE=Ricky Van Shelton - Wild-Eyed Dream
DYEAR=1987
DGENRE=Country
TTITLE0=Ultimately Fine
TTITLE1=Crime Of Passion
TTITLE2=Life Turned Her That Way
TTITLE3=I Don't Care
TTITLE4=Don't We All Have That Right
TTITLE5=Wild-Eyed Dream
TTITLE6=Baby, I'm Ready
TTITLE7=Somebody Lied
TTITLE8=Crazy Over You
TTITLE9=Working Man Blues
EXTD=
EXTT0=
EXTT1=
EXTT2=
EXTT3=
EXTT4=
EXTT5=
EXTT6=
EXTT7=
EXTT8=
EXTT9=
PLAYORDER=
